#!OML:ASF E:\Steps\Project 1\Capture day 1\Session 2\Subject.ASF
:FULLY-SPECIFIED
:DEGREES
496
root 12.1366 18.0834 17.9497 -147.439 2.51535 177.734
lowerback -18.7807 -3.38507 -10.1685
upperback 2.07247 -1.60735 -2.10864
thorax 13.2593 -1.27888 2.93007
lowerneck 1.2295 -3.32673 0.579435
upperneck 22.199 -3.20287 2.88523
head 6.57988 -0.584831 0.744099
rclavicle 3.89618e-014 5.48646e-014
rhumerus -39.9534 2.01277 -87.4425
rradius 37.8971
rwrist -9.42074
rhand -7.62376 -49.5123
rfingers 7.12502
rthumb 18.2708 -78.6742
lclavicle 3.89618e-014 5.48646e-014
lhumerus -34.7429 -0.417437 72.5045
lradius 39.3463
lwrist 2.41798
lhand -22.2107 -13.1637
lfingers 7.12502
lthumb 4.20529 16.7746
rfemur 140.348 -184.307 -159.026
rtibia 16.6278
rfoot -18.0955 -2.81051
rtoes -15.6613
lfemur -44.5528 -12.6642 -17.4
ltibia 27.1435
lfoot -8.28462 -1.55287
ltoes -36.9848
497
root 12.1497 18.0861 17.9319 -147.614 2.33596 177.66
lowerback -18.8494 -3.50178 -10.1026
upperback 2.1087 -1.75191 -2.16787
thorax 13.3575 -1.339 2.77769
lowerneck 1.37093 -3.25482 0.498121
upperneck 22.2639 -3.07952 2.91612
head 6.57671 -0.521419 0.776688
rclavicle -3.97569e-015 1.19271e-014
rhumerus -40.0651 1.58163 -87.2639
rradius 37.9838
rwrist -9.20543
rhand -7.54273 -49.1673
rfingers 7.12502
rthumb 18.3488 -78.3219
lclavicle -3.97569e-015 1.19271e-014
lhumerus -34.7908 -0.21289 72.4769
lradius 39.194
lwrist 2.11912
lhand -22.437 -13.086
lfingers 7.12502
lthumb 3.98682 16.8564
rfemur 140.646 -184.275 -158.996
rtibia 16.6149
rfoot -17.3734 -2.95134
rtoes -18.2264
lfemur -43.9032 -12.7819 -17.5573
ltibia 26.4314
lfoot -8.24868 -1.37886
ltoes -35.2827
498
root 12.1613 18.0853 17.9194 -147.608 1.99843 177.495
lowerback -18.9613 -3.72858 -10.1273
upperback 2.03869 -2.03519 -2.13366
thorax 13.3817 -1.46764 2.74013
lowerneck 1.73586 -3.07446 0.320025
upperneck 22.1381 -2.78783 2.88363
head 6.47148 -0.396517 0.814451
rclavicle 1.59028e-014 1.90833e-014
rhumerus -40.2059 1.34136 -86.9968
rradius 37.9709
rwrist -9.29546
rhand -7.10737 -49.5425
rfingers 7.12502
rthumb 18.7676 -78.6572
lclavicle 1.59028e-014 1.90833e-014
lhumerus -35.0207 0.0846998 72.5507
lradius 39.16
lwrist 1.89227
lhand -22.5375 -13.1686
lfingers 7.12502
lthumb 3.88972 16.7756
rfemur 140.766 -184.21 -159.088
rtibia 16.5431
rfoot -18.1023 -3.21047
rtoes -16.4903
lfemur -43.5711 -13.0309 -17.7469
ltibia 25.8425
lfoot -8.55466 -0.869572
ltoes -38.1445
499
root 12.1687 18.0869 17.9088 -147.601 1.74004 177.336
lowerback -18.6477 -3.86743 -10.1922
upperback 1.7464 -2.26921 -2.05821
thorax 12.8928 -1.55479 2.81381
lowerneck 2.20243 -2.99652 0.0852298
upperneck 22.1001 -2.60319 2.79448
head 6.37911 -0.322007 0.839561
rclavicle 7.95139e-016 1.74931e-014
rhumerus -41.0512 1.59428 -86.8877
rradius 38.4495
rwrist -9.44325
rhand -7.46708 -49.5232
rfingers 7.12502
rthumb 18.4216 -78.671
lclavicle 7.95139e-016 1.74931e-014
lhumerus -35.4161 0.315745 72.7727
lradius 38.9881
lwrist 1.75235
lhand -22.5194 -13.1597
lfingers 7.12502
lthumb 3.90724 16.7842
rfemur 140.838 -184.248 -159.273
rtibia 16.5212
rfoot -17.7843 -3.56045
rtoes -17.4424
lfemur -43.2746 -13.1032 -18.0479
ltibia 25.291
lfoot -7.89436 -0.77552
ltoes -32.2517
500
root 12.1751 18.089 17.9036 -147.519 1.50963 177.237
lowerback -18.7601 -3.89354 -10.0845
upperback 1.70211 -2.301 -2.1174
thorax 12.9027 -1.55421 2.67513
lowerneck 2.33607 -3.05561 0.113056
upperneck 22.047 -2.67321 2.77586
head 6.33977 -0.354333 0.826604
rclavicle -8.74653e-015 6.36111e-015
rhumerus -41.5173 1.31954 -86.7544
rradius 39.1869
rwrist -9.84499
rhand -7.67563 -48.7791
rfingers 7.12502
rthumb 18.2209 -77.9457
lclavicle -8.74653e-015 6.36111e-015
lhumerus -35.1836 0.263999 72.8786
lradius 38.6893
lwrist 1.75702
lhand -22.5794 -12.948
lfingers 7.12502
lthumb 3.84923 16.9969
rfemur 140.797 -184.399 -159.458
rtibia 16.4861
rfoot -17.4507 -3.9237
rtoes -17.6194
lfemur -43.162 -13.0017 -18.3218
ltibia 24.9764
lfoot -7.77494 -0.909586
ltoes -29.6747
501
root 12.182 18.0905 17.901 -147.464 1.23137 177.129
lowerback -18.6365 -3.8699 -9.87546
upperback 1.75751 -2.307 -2.25393
thorax 12.8786 -1.53453 2.40634
lowerneck 1.80745 -3.16334 0.306576
upperneck 22.2498 -2.86253 2.77309
head 6.49511 -0.429774 0.779761
rclavicle 2.38542e-015 1.74931e-014
rhumerus -41.4526 0.512452 -86.469
rradius 39.2817
rwrist -9.62136
rhand -7.43002 -49.2309
rfingers 7.12502
rthumb 18.4572 -78.3753
lclavicle 2.38542e-015 1.74931e-014
lhumerus -34.7139 0.145174 72.8801
lradius 38.5156
lwrist 1.78654
lhand -22.4729 -13.0376
lfingers 7.12502
lthumb 3.95212 16.9055
rfemur 140.824 -184.5 -159.632
rtibia 16.3679
rfoot -17.4516 -4.30207
rtoes -16.761
lfemur -43.0463 -12.9247 -18.5691
ltibia 24.6906
lfoot -7.90807 -1.05821
ltoes -27.8515
502
root 12.1909 18.0955 17.9038 -147.507 0.911506 177.045
lowerback -18.4366 -3.94546 -9.84265
upperback 1.78868 -2.45208 -2.20167
thorax 12.8164 -1.60366 2.40885
lowerneck 1.7877 -3.14921 0.198132
upperneck 22.1282 -2.86324 2.79551
head 6.46115 -0.447019 0.803661
rclavicle -1.98785e-014 -6.04305e-014
rhumerus -41.4228 0.24912 -86.1555
rradius 39.319
rwrist -9.56515
rhand -7.0877 -49.7632
rfingers 7.12502
rthumb 18.7865 -78.876
lclavicle -1.98785e-014 -6.04305e-014
lhumerus -34.5148 0.416204 73.0526
lradius 38.4045
lwrist 1.63059
lhand -22.391 -13.0308
lfingers 7.12502
lthumb 4.03119 16.9108
rfemur 140.922 -184.594 -159.754
rtibia 16.3041
rfoot -17.8152 -4.71896
rtoes -15.5894
lfemur -42.9001 -12.9915 -18.6383
ltibia 24.4655
lfoot -8.17248 -1.11415
ltoes -27.333
503
root 12.2004 18.1031 17.9075 -147.65 0.619624 177.012
lowerback -18.0882 -3.72628 -10.0634
upperback 1.70979 -2.75781 -2.00404
thorax 12.5422 -1.99059 2.63447
lowerneck 2.36405 -3.02564 -0.039315
upperneck 21.8107 -2.64567 2.71355
head 6.25994 -0.373382 0.83148
rclavicle 4.21423e-014 3.18055e-014
rhumerus -41.7224 0.324019 -85.725
rradius 39.3832
rwrist -10.368
rhand -7.1274 -49.1012
rfingers 7.12502
rthumb 18.7483 -78.2177
lclavicle 4.21423e-014 3.18055e-014
lhumerus -34.7888 0.777783 73.3454
lradius 38.438
lwrist 1.47024
lhand -22.3018 -12.7861
lfingers 7.12502
lthumb 4.11735 17.1539
rfemur 141.129 -184.838 -159.915
rtibia 16.1883
rfoot -18.1493 -5.04964
rtoes -13.4161
lfemur -42.658 -13.1588 -18.5522
ltibia 24.2628
lfoot -8.77811 -1.02512
ltoes -31.3078
504
root 12.2063 18.1039 17.9013 -147.73 0.324088 177.064
lowerback -18.2171 -3.77313 -9.94769
upperback 1.81624 -2.81871 -1.90584
thorax 12.7489 -2.0184 2.65117
lowerneck 2.82824 -2.95751 -0.15976
upperneck 21.3067 -2.57659 2.78336
head 6.02159 -0.365993 0.877304
rclavicle 2.06736e-014 3.49861e-014
rhumerus -41.7933 0.353895 -85.6072
rradius 39.2702
rwrist -10.4132
rhand -7.60684 -49.5384
rfingers 7.12502
rthumb 18.2871 -78.6988
lclavicle 2.06736e-014 3.49861e-014
lhumerus -34.7527 0.934285 73.5864
lradius 38.5166
lwrist 1.37069
lhand -22.3219 -12.8081
lfingers 7.12502
lthumb 4.09795 17.1323
rfemur 141.368 -184.919 -159.893
rtibia 15.973
rfoot -17.4365 -5.17057
rtoes -14.2153
lfemur -42.4315 -13.2508 -18.4357
ltibia 24.0104
lfoot -8.66456 -1.06803
ltoes -26.3045
